<svg xmlns="http://www.w3.org/2000/svg" width="37" height="60"><path d="M12.143 8.683l.043.293.284-.037c1.173-.156 1.847-.337 2.57-.698 1.723-.873 2.926-2.555 3.682-5.17l.1-.4.158-.653.404-1.978c0-.07-.056-.056-.34.075l-1.15.55C14.403 2.336 12.63 4.22 12.2 6.72a7.81 7.81 0 0 0-.056 1.964zm-3.54 4.452l.333.33.476-.493a6.43 6.43 0 0 0 1.309-1.852c.352-.73.513-1.4.562-2.282.08-1.596-.408-3.355-1.612-5.843l-.52-1.027a.21.21 0 0 0-.029-.046c-.012 0-.204.343-.426.76C7.413 5.13 6.85 6.962 6.85 8.67c0 .854.062 1.316.266 1.97a6.67 6.67 0 0 0 1.488 2.494zM9.87 16.41l.858-.037c3.093-.14 5.102-1.87 6.51-5.628l.134-.37.648-2.12-.05.01-1.018.325c-2.452.836-3.903 1.627-5.09 2.78-1.24 1.203-1.828 2.538-1.95 4.4l-.043.648zm-3.248 5.593c.068 0 .574-.81.846-1.353.414-.842.574-1.472.605-2.457l.01-.43a4.26 4.26 0 0 0-.079-.941c-.278-1.378-.852-2.594-1.995-4.22l-.56-.762-.96-1.14-.04.108-.093.313-.528 2.01c-.685 3.168-.352 5.562 1.02 7.295.185.234.443.52.628.695l.1.09c.414.355.988.792 1.044.792zm1.402 4.178c.445 0 1.84-.58 2.544-1.066 1.52-1.03 2.507-2.93 2.86-5.468l.05-.4.045-.45.12-2.144-.023-.438-.988.673c-1.235.836-1.742 1.24-2.58 2.064-1.748 1.715-2.513 3.386-2.433 5.337.037.917.247 1.902.408 1.902zm-1.05 3.866c.056 0 .228-.736.32-1.372.093-.61.03-1.777-.117-2.338-.5-1.84-1.76-3.355-4.12-4.957l-.397-.26-1.56-.925c-.025 0-.038.06-.032.138l.026.212.028.32.022.326c.284 4.396 1.68 7.127 4.25 8.324.383.18 1.433.53 1.58.53zm3.224 4.552c.543-.28 1.29-.81 1.742-1.24 1.007-.966 1.618-2.214 1.834-3.722.1-.698.08-2.35-.037-3.267l-.13-.856-.346-1.806c-.02-.012-.346.318-.74.742-1.112 1.203-1.704 1.945-2.266 2.856-1.412 2.272-1.665 4.425-.777 6.54l.247.542c.184.384.208.346.474.214zm-1.204 1.61l.043-.01c.16-.044.167-.062.13-.312-.364-2.55-1.532-4.16-3.8-5.25-1.038-.495-2.2-.83-3.88-1.115l-1.323-.208c-.182-.024-.152-.006-.152.026l.022.053.256.527.235.462c.945 1.846 1.618 2.825 2.63 3.847.994.998 1.902 1.565 3.038 1.877l.254.064c.28.06.538.077 1.126.08l.57-.002.464-.01.398-.028zm3.78 6.65l.327-.23c1.32-.92 2.166-2.024 2.605-3.4l.088-.3.07-.26c.067-.276.09-.48.1-.908l.004-.67c0-1.023-.036-1.5-.21-2.332l-.16-.692-.19-.72-.587-1.806c-.025 0-.327.374-.66.823-2.68 3.604-3.384 6.385-2.273 8.98a7.44 7.44 0 0 0 .649 1.201l.24.314zm5.478 5.02c.136 0 1.056-1.09 1.396-1.646 1.044-1.715 1.15-3.654.327-6.098-.235-.717-1.457-3.342-1.717-3.698-.05-.07-.11 0-.355.494l-.22.454c-.618 1.284-.957 2.132-1.223 3.086-.685 2.388-.463 4.452.655 6.123.34.5 1.03 1.284 1.136 1.284zm-7.65-5.506l.69-.175-.117-.45c-.846-3.086-2.964-4.67-6.86-5.12l-.517-.05-.566-.04-1.87-.032c0 .1 1.173 1.814 1.686 2.457.642.804 1.71 1.864 2.328 2.3s1.42.842 2.08 1.048l.225.064c.275.073.478.096.97.102l.873.003.38-.01c.22-.01.382-.03.56-.067l.136-.03zm15.018 9.434c.142 0 .7-1.422.883-2.214.136-.617.105-1.896-.062-2.525-.296-1.122-.8-2.095-1.618-3.18-.45-.592-2.056-2.295-2.594-2.75l-.284-.237-.068.48c-.266 1.77-.346 3.76-.204 4.89.154 1.185.543 2.326 1.08 3.174a7.14 7.14 0 0 0 1.735 1.746l.28.177.374.218c.236.13.427.223.477.223zm-10.8-3.754l.315-.104c.576-.204 1.11-.468 1.11-.557 0-.156-.543-1.1-.933-1.627-1.044-1.403-2.495-2.195-4.44-2.438-.61-.075-2.087-.07-2.84.006l-1.125.156-1.456.243c-.037.037 1.63 1.684 2.15 2.126 1.272 1.085 2.723 1.914 3.89 2.238 1.062.293 2.297.274 3.33-.044zm21.102 6.042c.074-.07-.074-1.247-.222-1.82-.074-.274-.253-.76-.408-1.085-.965-2.068-2.87-3.32-6.434-4.205l-1.287-.298-.246-.047c-.067-.01-.086-.004-.086.01 0 .076.398 1.013.742 1.756l.147.314c.7 1.484 1.383 2.52 2.192 3.355 1.02 1.066 2.044 1.66 3.366 1.958.457.1 2.15.15 2.236.062zm-17.576-.842c.97-.006 1.692-.156 2.5-.536l.25-.127c.506-.275 1.233-.746 1.3-.852.056-.1-.253-.524-.82-1.122-.858-.898-1.76-1.447-2.86-1.74l-.27-.063c-.267-.053-.546-.076-1.02-.087l-.946-.014-.316.004-.165.01-.587.094c-.85.133-2.342.567-3.797 1.113l-.514.196.395.287c.797.592 2.026 1.347 2.865 1.765 1.593.792 2.65 1.072 3.983 1.072zm9.443 2.7c.438-.33 1.124-1.016 1.42-1.434l.198-.274-.39-.293c-1.433-1.066-3.032-1.534-4.57-1.334-1.534.194-3.3 1.023-5.365 2.518l-1.01.75.185.08c.37.162 1.71.586 2.415.767 1.15.293 1.766.387 2.804.418 1.797.062 3.106-.3 4.31-1.197zM30.57 60h.278c1.544 0 2.5-.212 3.55-.78.865-.468 1.674-1.228 2.28-2.14l.32-.474-.39-.256c-1.285-.836-2.84-1.228-4.156-1.048-1.945.268-3.89 1.403-6.565 3.835-.057.047.053.1.534.22l1.01.24c1.315.3 2.055.39 3.138.4z" fill="#fff" fill-rule="nonzero" fill-opacity=".25"/></svg>
